PathFileType	4	(X/Y/Z)	Patient4_TMGait_0pt7_01_left_40.trc.trc
DataRate	CameraRate	NumFrames	NumMarkers	Units	OrigDataRate	OrigDataStartFrame	OrigNumFrames
84.848484848485	84.848484848485	4	33	mm	84.848484848485	71	       141
Frame#	Time	Sacral			L.Shoulder			Chest			R.Shoulder			Neck			R.ASIS			L.ASIS			R.Thigh.Superior			R.Thigh.Lateral			R.Thigh.Inferior			R.Patella			L.Thigh.Superior			L.Thigh.Lateral			L.Thigh.Inferior			L.Patella			L.Shank.Superior			L.Shank.Lateral			L.Shank.Inferior			R.Shank.Superior			R.Shank.Lateral			R.Shank.Inferior			R.Heel			R.Midfoot.Superior			R.Midfoot.Lateral			R.Toe			L.Heel			L.Midfoot.Lateral			L.Midfoot.Superior			L.Toe			L.Elbow			L.Wrist			R.Elbow			R.Wrist			
		X1	Y1	Z1	X2	Y2	Z2	X3	Y3	Z3	X4	Y4	Z4	X5	Y5	Z5	X6	Y6	Z6	X7	Y7	Z7	X8	Y8	Z8	X9	Y9	Z9	X10	Y10	Z10	X11	Y11	Z11	X12	Y12	Z12	X13	Y13	Z13	X14	Y14	Z14	X15	Y15	Z15	X16	Y16	Z16	X17	Y17	Z17	X18	Y18	Z18	X19	Y19	Z19	X20	Y20	Z20	X21	Y21	Z21	X22	Y22	Z22	X23	Y23	Z23	X24	Y24	Z24	X25	Y25	Z25	X26	Y26	Z26	X27	Y27	Z27	X28	Y28	Z28	X29	Y29	Z29	X30	Y30	Z30	X31	Y31	Z31	X32	Y32	Z32	X33	Y33	Z33	

71	47.115000000000	840.389880381487	999.490260506348	406.592515930634	1048.584301598980	1422.147561228716	235.823513298219	1133.705525231683	1348.291818347693	406.063194466088	1038.551326770061	1430.685524297353	569.781729867364	1040.374241000282	1484.470691539227	388.034369727036	1055.533028217796	934.767954068097	544.511169104255	1065.215463873002	955.357087806568	267.289376825449	1131.360100100065	764.510703703827	522.480058729671	1085.592088682705	639.759727057837	591.823019876127	1182.120906681671	607.912921354873	519.008592424223	1216.260632351114	528.415983466297	535.244825441321	1062.506928747907	728.745169964778	294.772325786838	945.453995669401	636.726107349696	227.561717468270	1000.884963650616	541.704049738207	293.003807298381	984.472905109916	476.294874749288	301.877743542839	952.180292894322	410.884326605079	293.137847928677	852.108185794375	305.808576608033	240.953671652166	889.440360734164	190.459298095930	314.880172776332	1207.623587255286	439.495784015346	543.541641752096	1160.375357700197	320.409271198295	601.019924761324	1240.921688104832	241.795527562943	554.174220718216	1168.760583674603	47.413206200751	518.088808986663	1321.252620488756	135.606980031900	569.325310567769	1248.351206754012	52.206092993380	595.123720927534	1446.410049602476	109.990871294364	601.731768641437	750.675192674646	40.154483094300	358.564325904784	824.578464066922	35.417602865724	278.507888496420	908.294052625866	95.555559230003	304.902916411691	1036.620352088949	40.934620026456	277.405144329110	1102.309228195632	1098.601437676160	82.282000332989	1352.160211320955	1083.556125799482	130.719259171720	891.690710981641	1123.398210269477	692.704678659799	863.351215806499	864.314439021805	715.659587377678	
72	47.126785714286	842.371776534310	996.755226283185	409.781414735872	1047.019551613432	1420.140057129514	237.834747685222	1133.334255874852	1347.342546337149	407.917016471703	1037.987524700368	1429.467197717521	571.756350383704	1039.056185286825	1482.620565168152	389.805076028623	1058.482305489762	932.045064480020	546.234519345136	1066.629000016898	954.175224578878	269.006664993365	1133.342272549181	760.250428963005	524.107883177086	1085.596124778969	635.504949214551	592.275120582392	1181.904641944876	603.318687810613	519.392028304605	1214.641352902983	523.851610596552	534.393808439233	1061.886132305306	726.789757149813	295.203566760616	943.106646497346	636.196559568221	228.552546427622	997.776088375030	540.364275891382	293.397178499183	980.689047250040	474.801064762671	302.235576815310	947.534270512996	409.841858349817	293.532777484529	846.007695553905	306.042124817939	241.501467718548	882.312862743962	190.065576726131	314.944579659249	1206.226783534743	434.858929329004	542.840414860454	1158.897840712194	315.880859496000	600.083349943156	1239.117941382825	237.310334602733	552.930155840065	1165.990475721255	44.781447405576	516.598310588590	1319.164728226908	130.548746037151	567.557793056161	1245.319505964113	48.846183103291	593.881012864409	1443.933348262961	103.459704885824	600.505289118695	742.406125554253	40.276865892901	358.479519587851	816.324911155100	35.444094517785	278.489750617935	900.104623790873	95.541009164673	304.848352242468	1028.375458717428	40.728987491875	277.293570940672	1105.317177109584	1097.939373278293	84.022930969954	1354.922606825467	1090.552101180767	134.346027950483	886.368721563283	1125.526607383403	694.633557247254	856.312187746136	866.238599889389	716.199193857811	
73	47.138571428571	844.375062532888	994.082046592640	413.208592392669	1045.399712895870	1418.180856384702	240.020316241957	1133.026971379710	1346.448442079341	409.896022935418	1037.528751648039	1428.209651237516	573.957605417855	1037.759264306286	1480.803991310714	391.810055997355	1061.594218415506	929.394336872385	547.960836722939	1068.002948803903	952.867155807941	270.907354292878	1135.901634591354	756.341578336038	525.476108116965	1086.369606731413	631.697740061993	592.627018527292	1182.255047846484	599.206930625348	519.419623402166	1213.600304808537	519.464738882022	533.249682252999	1061.599276864125	724.827697866864	295.859000973186	941.287103208348	635.539997629825	229.794923861620	995.286893227217	538.940440199367	294.081979443471	977.563014292187	473.124457154113	302.902472011920	943.459990816915	408.616400141891	294.179454732789	840.355336613974	306.273496900770	242.238451409834	875.395888269101	189.616392550491	315.131375965802	1205.039491005960	430.281094330427	541.929054174724	1157.199471138701	311.701448675502	599.206785218335	1236.430432867437	232.721214767336	551.527627959887	1160.932877918721	42.759451575191	515.324046922278	1315.493799737244	124.994226446253	565.541349074718	1240.187600609528	45.616570383437	592.728321714358	1439.761638250286	95.547105701367	598.772290718973	734.134084161776	40.465259402473	358.368432871830	808.094340692423	35.491706433084	278.462624520759	891.974343794478	95.539330646884	304.808640061323	1020.172971775071	40.522094462865	277.170388417600	1107.684531627632	1097.144535389183	86.018940063091	1356.888581138575	1096.567244964276	137.950327885166	881.955665234580	1127.099680853305	696.471811115916	850.463841204800	867.603322332528	716.790973703730	
74	47.150357142857	846.345575978088	991.580942568175	416.807583049678	1043.816173277861	1416.365656640611	242.384634055224	1132.819123307856	1345.643115825359	412.004503866291	1037.232639498393	1426.953912625069	576.385043808307	1036.572335060817	1479.105483328237	394.069195204393	1064.782132337494	926.941302140434	549.698613552869	1069.309554954645	951.494503227417	273.003314121125	1138.933682706256	752.950116898042	526.543283359341	1087.924694103017	628.514702296132	592.929552026445	1183.150773365841	595.754365201682	519.111600333801	1213.165563388490	515.464399537888	531.902648115303	1061.642771811404	722.935864218338	296.784189434575	940.022694323689	634.781920207882	231.305672875798	993.472426921677	537.468736919440	295.076332402134	975.172133650521	471.285640945178	303.863009106005	940.000852192321	407.235540728760	295.073425819845	835.183029336788	306.553892780474	243.163709674036	868.718178862387	189.156077048611	315.425002843872	1204.171590044716	425.992361513754	540.904369503047	1155.524317179272	308.035189508451	598.492190683977	1233.196004242289	228.278887364116	550.071896447727	1154.192722444236	41.351895423475	514.322914605673	1310.662125289851	119.328226370968	563.429633181617	1233.536886388712	42.689395167369	591.746257528554	1434.356661695312	86.916523397412	596.720560815175	725.867156858201	40.806314912808	358.224215111428	799.893890298066	35.591918709444	278.422526739216	883.940373998611	95.558724869900	304.763446465312	1012.020925168204	40.312993187026	277.037933278643	1109.315164458526	1096.238340681997	88.277253766361	1358.046199929946	1101.562829047565	141.493644241286	878.584615941068	1128.040341739230	698.245658301961	845.899410482054	868.354224851905	717.442642977649	
